# xmcd
#
# Track frame offsets: 
#        150
#        17208
#        35229
#        61416
#        80719
#        100034
#        118046
#        138280
#        158186
#        179027
#        196360
#
# Disc length: 2892 seconds
#
# Revision: 0
# Processed by: cddbd v1.5.2PL0 Copyright (c) Steve Scherf et al.
# Submitted via: ExactAudioCopy v0.95b4
#
DISCID=9c0b4a0b
DTITLE=The Rose Hotel - Robert Earl Keen
DYEAR=2009
DGENRE=Country
TTITLE0=The Rose Hotel
TTITLE1=Flyin' Shoes
TTITLE2=Throwin' Rocks
TTITLE3=10,000 Chinese Walk into a Bar
TTITLE4=Something I Do
TTITLE5=The Man Behind the Drums
TTITLE6=Goodbye Cleveland
TTITLE7=Laughing River
TTITLE8=On and On
TTITLE9=Village Inn
TTITLE10=Wireless in Heaven
EXTD=
EXTT0=
EXTT1=
EXTT2=
EXTT3=
EXTT4=
EXTT5=
EXTT6=
EXTT7=
EXTT8=
EXTT9=
EXTT10=
PLAYORDER=
